<svg xmlns="http://www.w3.org/2000/svg" viewBox="0 0 88.95571 8.99999"><path d="M84.46914,1.50837l-.00733-.01568A1.7224,1.7224,0,0,1,84.45736.00025a4.497,4.497,0,0,0-4.50165,4.49567.92073.92073,0,0,0,.75226.286.90562.90562,0,0,0,.74774-.286A2.99122,2.99122,0,0,1,84.502,1.51033C84.49117,1.51026,84.48,1.50837,84.46914,1.50837Z" style="fill:#fff"/><path d="M0,.25213H1.51221V8.74822H0Z" style="fill:#fff"/><path d="M5.78418.25213H8.148l2.208,6.03613h.03613L12.57617.25213h2.376V8.74822h-1.5V1.92009h-.02393L10.84814,8.74822H9.792L7.24805,1.92009H7.22412V8.74822H5.78418Z" style="fill:#fff"/><path d="M21.88818.25213h1.30811L26.856,8.74822h-1.728l-.792-1.94385H20.65186l-.76758,1.94385H18.19189ZM23.80811,5.508,22.5,2.05242,21.168,5.508Z" style="fill:#fff"/><path d="M37.31982,8.30437a6.59085,6.59085,0,0,1-1.42187.48584,8.195,8.195,0,0,1-1.78223.17383,5.18018,5.18018,0,0,1-1.88379-.32959,4.3047,4.3047,0,0,1-1.46386-.92432,4.18662,4.18662,0,0,1-.95411-1.416,4.68659,4.68659,0,0,1-.34228-1.81787,4.61439,4.61439,0,0,1,.354-1.8418A4.1,4.1,0,0,1,30.79785,1.236a4.31875,4.31875,0,0,1,1.458-.88769,5.19879,5.19879,0,0,1,1.82422-.312A5.65773,5.65773,0,0,1,35.9458.33025a3.80863,3.80863,0,0,1,1.36182.77393l-1.044,1.12793a2.57479,2.57479,0,0,0-.90576-.61182,3.15325,3.15325,0,0,0-1.26611-.252,2.998,2.998,0,0,0-1.21778.23974,2.7352,2.7352,0,0,0-.93017.66016,2.98383,2.98383,0,0,0-.59424.98389,3.48949,3.48949,0,0,0-.21,1.22412,3.60929,3.60929,0,0,0,.21,1.2539,2.92673,2.92673,0,0,0,.6001.99024,2.70138,2.70138,0,0,0,.94824.65381,3.24274,3.24274,0,0,0,1.26611.23388,4.375,4.375,0,0,0,1.6919-.2998V5.14812H34.06787v-1.248h3.252Z" style="fill:#fff"/><path d="M41.55615.25213h5.62793V1.57244H43.06836V3.73211h3.8999v1.272h-3.8999V7.404H47.3999V8.74822H41.55615Z" style="fill:#fff"/><path d="M55.60791,2.028a1.84441,1.84441,0,0,0-.67822-.522,2.02742,2.02742,0,0,0-.88184-.21A2.192,2.192,0,0,0,53.52,1.362a1.62351,1.62351,0,0,0-.48.2041,1.12934,1.12934,0,0,0-.354.36035.98787.98787,0,0,0-.13819.53369.95488.95488,0,0,0,.12012.49219A1.07987,1.07987,0,0,0,52.99805,3.3a2.23477,2.23477,0,0,0,.50976.25244q.29957.10767.66016.21582.408.13183.8457.2998a3.28953,3.28953,0,0,1,.8042.44434,2.20443,2.20443,0,0,1,.6001.6958,2.12441,2.12441,0,0,1,.23389,1.044,2.66763,2.66763,0,0,1-.252,1.19433,2.46234,2.46234,0,0,1-.67187.8457,2.86457,2.86457,0,0,1-.98438.50391,4.12887,4.12887,0,0,1-1.188.168A4.46589,4.46589,0,0,1,51.936,8.65838a3.12882,3.12882,0,0,1-1.29639-.90625l1.08008-1.00782a2.17048,2.17048,0,0,0,.834.68409,2.34926,2.34926,0,0,0,1.02637.25195,2.318,2.318,0,0,0,.53955-.06592,1.43769,1.43769,0,0,0,.498-.22217,1.246,1.246,0,0,0,.36035-.39013,1.12993,1.12993,0,0,0,.13769-.582A.95273.95273,0,0,0,54.96,5.862,1.39639,1.39639,0,0,0,54.54,5.4782a3.01119,3.01119,0,0,0-.624-.28174q-.36036-.12012-.75635-.25244a7.47572,7.47572,0,0,1-.76807-.2876,2.55668,2.55668,0,0,1-.68994-.44433,2.14411,2.14411,0,0,1-.498-.67774,2.32057,2.32057,0,0,1-.19189-1.00195,2.19978,2.19978,0,0,1,.27-1.11621,2.38991,2.38991,0,0,1,.708-.77393,3.15071,3.15071,0,0,1,.99609-.45605,4.3453,4.3453,0,0,1,1.13379-.1499,4.04711,4.04711,0,0,1,1.31445.228A3.20733,3.20733,0,0,1,56.5918.94841Z" style="fill:#fff"/><path d="M60.56348.25213h2.772a6.02,6.02,0,0,1,1.31982.13232,2.75471,2.75471,0,0,1,1.0083.43164,2.01742,2.01742,0,0,1,.64795.76807,2.55707,2.55707,0,0,1,.228,1.12793,2.4399,2.4399,0,0,1-.26416,1.188,2.13735,2.13735,0,0,1-.71387.77392,3.12375,3.12375,0,0,1-1.05029.42627,5.91322,5.91322,0,0,1-1.272.13184H62.07568V8.74822h-1.5122Zm2.56787,3.708a4.50343,4.50343,0,0,0,.708-.05371,1.95475,1.95475,0,0,0,.60009-.19238,1.095,1.095,0,0,0,.41993-.37793,1.12567,1.12567,0,0,0,.15624-.624,1.0744,1.0744,0,0,0-.15624-.606,1.07986,1.07986,0,0,0-.41407-.36572,1.78338,1.78338,0,0,0-.58789-.17432,5.39924,5.39924,0,0,0-.67822-.042H62.07568v2.436Z" style="fill:#fff"/><path d="M70.28369.25213h2.95215a5.31308,5.31308,0,0,1,1.16309.126,2.9788,2.9788,0,0,1,1.002.41406A2.15073,2.15073,0,0,1,76.104,1.548a2.2916,2.2916,0,0,1,.26368,1.14014A2.1701,2.1701,0,0,1,75.84619,4.194a2.62581,2.62581,0,0,1-1.42187.78613l2.26757,3.76807H74.86768l-1.96827-3.6001H71.7959v3.6001H70.28369Zm2.748,3.66015a4.45117,4.45117,0,0,0,.64795-.04785,1.88457,1.88457,0,0,0,.582-.18018,1.14258,1.14258,0,0,0,.42627-.37792,1.09922,1.09922,0,0,0,.168-.62989.97493.97493,0,0,0-.15625-.57031,1.16153,1.16153,0,0,0-.39649-.354,1.64954,1.64954,0,0,0-.54541-.17969,3.81012,3.81012,0,0,0-.59424-.04834H71.7959V3.91228Z" style="fill:#fff"/><path d="M88.95557,4.51441A1.84828,1.84828,0,0,0,87.459,4.49982l-.01648.007a2.98889,2.98889,0,0,1-2.9825,2.993c-.02258,0-.281.17712-.281.76665s.21508.73284.21508.73284A4.49706,4.49706,0,0,0,88.95557,4.51441Z" style="fill:#fff;opacity:0.7"/><circle cx="84.45564" cy="4.49971" r="0.82208" style="fill:#fff"/><path d="M88.9557.41688a.41662.41662,0,0,0-.41663-.41662H84.45393l.00427.00281A1.72214,1.72214,0,0,0,84.4618,1.497l.00732.01569a3.165,3.165,0,0,1,.94806.131,2.91284,2.91284,0,0,1,1.897,1.897,3.0913,3.0913,0,0,1,.13525.9657l.01532-.00647A1.85373,1.85373,0,0,1,88.95,4.51027c.00024-.0614-.00543-.124-.007-.18585.01148-.13135.0127-.43122.0127-1.127Z" style="fill:#fff;opacity:0.85"/></svg>